<svg xmlns="http://www.w3.org/2000/svg" width="26.5" height="26.5" viewBox="0 0 26.5 26.5"><defs><style>.a{fill:none;stroke:#fff;stroke-miterlimit:10;stroke-width:0.5px;}</style></defs><g transform="translate(-107.339 -58.731)"><path class="a" d="M133.589,71.982a13,13,0,1,1-13-13A13,13,0,0,1,133.589,71.982Z" transform="translate(0)"/><path class="a" d="M115.5,73.526v4.41a1.239,1.239,0,0,0,1.241,1.238h12.333a1.239,1.239,0,0,0,1.239-1.238v-6.6a1.235,1.235,0,0,0-1.239-1.237H116.493a.939.939,0,0,0-.975,1.053l6.094,4.739a1.714,1.714,0,0,0,2.431.033l4.724-4.312" transform="translate(-2.033 -2.86)"/></g></svg>