<svg xmlns="http://www.w3.org/2000/svg" width="26.5" height="26.501" viewBox="0 0 26.5 26.501"><defs><style>.a{fill:none;stroke:#fff;stroke-miterlimit:10;stroke-width:0.5px;}</style></defs><g transform="translate(50.155 -58.73)"><path class="a" d="M-23.9,71.981a13,13,0,0,1-13,13,13,13,0,0,1-13-13,13,13,0,0,1,13-13A13,13,0,0,1-23.9,71.981Z" transform="translate(0 0)"/><path class="a" d="M-31.539,69.721a1.34,1.34,0,0,1-1.339,1.34,1.341,1.341,0,0,1-1.34-1.34,1.34,1.34,0,0,1,1.34-1.34A1.34,1.34,0,0,1-31.539,69.721Z" transform="translate(-4.034 -2.417)"/><path class="a" d="M-36.831,70.245a1.339,1.339,0,0,1-1.34,1.339,1.338,1.338,0,0,1-1.339-1.339,1.339,1.339,0,0,1,1.339-1.34A1.34,1.34,0,0,1-36.831,70.245Z" transform="translate(-2.673 -2.552)"/><path class="a" d="M-39.74,74.84a1.341,1.341,0,0,1-1.34,1.34,1.34,1.34,0,0,1-1.339-1.34A1.34,1.34,0,0,1-41.08,73.5,1.341,1.341,0,0,1-39.74,74.84Z" transform="translate(-1.925 -3.734)"/><path class="a" d="M-33.156,74.126a1.34,1.34,0,0,1-.561-1.091A1.34,1.34,0,0,1-32.9,71.8l.071-.03a2.4,2.4,0,0,0,1.441-2.2,2.507,2.507,0,0,0-.439-1.394l-.068-.091a6.653,6.653,0,0,0-1.87-1.692,6.753,6.753,0,0,0-3.612-1.04,6.78,6.78,0,0,0-6.781,6.78" transform="translate(-1.479 -1.638)"/><path class="a" d="M-44.155,74.41a10.069,10.069,0,0,0,10.07,10.07,9.884,9.884,0,0,0,5.7-1.777l.033-.024a3.556,3.556,0,0,0,1.518-2.81,3.531,3.531,0,0,0-1.076-2.623" transform="translate(-1.479 -3.968)"/><path class="a" d="M-27.879,78.588s7.333-4.4,5.251-6.577c-2.479-2.6-7.332,5.783-7.332,5.783l.991,1.091a.329.329,0,0,1-.027.5c-.271.27-.56-.058-.56-.058l-.1-.116-.759-.818s-2.081-.891-1.982,1.091c.131,2.6-1.585,2.279-1.585,2.279,3.126.781,4.2-.363,4.565-1.239" transform="translate(-4.095 -3.222)"/></g></svg>
