<svg xmlns="http://www.w3.org/2000/svg" width="26.5" height="26.5" viewBox="0 0 26.5 26.5"><defs><style>.a{fill:none;stroke:#fff;stroke-miterlimit:10;stroke-width:0.5px;}</style></defs><g transform="translate(363.786 -58.731)"><path class="a" d="M-337.536,71.981a13,13,0,0,1-13,13,13,13,0,0,1-13-13,13,13,0,0,1,13-13A13,13,0,0,1-337.536,71.981Z"/><path class="a" d="M-348.215,74.4c-1.367,0-2.962-1.286-3.634-3.1-.2-.552-.813-.211-.706-2.03.012-.228.408-.313.426-.534.215-2.376,1.564-4.1,3.913-4.1,2.4,0,3.651,1.715,3.907,3.98.032.292.493.2.505.51.107,2.372-.594,1.676-.822,2.249a5.526,5.526,0,0,1-1.132,1.758l-.307.293c-.776.781-.053,1.26-.053,1.26,1.767,1.463,5.095,1.73,5.095,3.552,0,2.3-3.231,4.164-7.216,4.164s-7.217-1.865-7.217-4.164c0-1.123,1-1.561,2.34-2.3.72-.4,1.788-1.516,2.625-1.313,1.157.536.1,3.3,2.344,4.547a5.144,5.144,0,0,0,2.133-3.433" transform="translate(-2.078 -1.454)"/></g></svg>
